PathFileType	4	(X/Y/Z)	C:\Users\Basilio\Documents\Thesis Gigler\squatting_fais\c3dfiles\039\SJ_pre5\markers_experimental.trc
DataRate	CameraRate	NumFrames	NumMarkers	Units	OrigDataRate	OrigDataStartFrame	OrigNumFrames
200.000000	200.000000	4	61	mm	200.000000	1222	1630
Frame#	Time	FHD			LBHD			RBHD			C7			T10			CLAV			LSHO			LUUPA			LMUPA			LDUPA			LLEP			LMEP			LRAD			LUL			LRFIN			RSHO			RUPA1			RMUPA			RDUPA			RLEP			RMEP			RRAD			RUL			RUFIN			LASI			RASI			USACR			LSACR			RSACR			LTHI1			LTHI2			LTHI3			LTHI4			LLFC			LMFC			LTIB1			LTIB2			LTIB3			LTIB4			LLMAL			LMMAL			LHEE			LMT1			LMT2			LMT5			RTHI			RTHI2			RTHI3			RTHI4			RLFC			RMFC			RTIB1			RTIB2			RTIB3			RTIB4			RLMAL			RMMAL			RHEE			RMT1			RMT2			RMT5			
		X1	Y1	Z1	X2	Y2	Z2	X3	Y3	Z3	X4	Y4	Z4	X5	Y5	Z5	X6	Y6	Z6	X7	Y7	Z7	X8	Y8	Z8	X9	Y9	Z9	X10	Y10	Z10	X11	Y11	Z11	X12	Y12	Z12	X13	Y13	Z13	X14	Y14	Z14	X15	Y15	Z15	X16	Y16	Z16	X17	Y17	Z17	X18	Y18	Z18	X19	Y19	Z19	X20	Y20	Z20	X21	Y21	Z21	X22	Y22	Z22	X23	Y23	Z23	X24	Y24	Z24	X25	Y25	Z25	X26	Y26	Z26	X27	Y27	Z27	X28	Y28	Z28	X29	Y29	Z29	X30	Y30	Z30	X31	Y31	Z31	X32	Y32	Z32	X33	Y33	Z33	X34	Y34	Z34	X35	Y35	Z35	X36	Y36	Z36	X37	Y37	Z37	X38	Y38	Z38	X39	Y39	Z39	X40	Y40	Z40	X41	Y41	Z41	X42	Y42	Z42	X43	Y43	Z43	X44	Y44	Z44	X45	Y45	Z45	X46	Y46	Z46	X47	Y47	Z47	X48	Y48	Z48	X49	Y49	Z49	X50	Y50	Z50	X51	Y51	Z51	X52	Y52	Z52	X53	Y53	Z53	X54	Y54	Z54	X55	Y55	Z55	X56	Y56	Z56	X57	Y57	Z57	X58	Y58	Z58	X59	Y59	Z59	X60	Y60	Z60	X61	Y61	Z61	

1223	6.11	-54.3906593322754	1774.884399414063	-764.7446289062501	-167.5114898681641	1708.427612304688	-915.264343261719	-176.0261383056641	1718.373413085938	-775.1490478515627	-201.0075836181641	1566.550415039063	-842.5000000000002	-225.8880310058594	1251.986450195313	-854.9551391601565	-57.70326232910158	1493.716186523438	-841.960144042969	-112.8040390014649	1546.330810546875	-1030.700927734375	-202.1887969970704	1410.843627929688	-1194.169311523438	-165.7715606689453	1376.359252929688	-1197.56591796875	-205.4168701171876	1356.308959960938	-1238.461181640625	-201.5968780517579	1291.198486328125	-1269.15625	-278.0390930175782	1274.381713867188	-1225.10595703125	-189.619613647461	1047.613525390625	-1105.5185546875	-139.6442413330078	1030.907958984375	-1160.9580078125	-137.6776885986328	1051.44873046875	-1056.208129882813	-93.27508544921876	1537.62890625	-649.1188354492189	-212.1113586425782	1416.539794921875	-498.9734497070314	-181.1180725097657	1378.783081054688	-486.6493225097657	-230.0035247802735	1364.919799804688	-455.0561523437501	-227.1600799560547	1299.1162109375	-427.074676513672	-303.3152465820313	1289.395263671875	-473.0140075683595	-189.0272674560547	1094.938842773438	-641.3214111328126	-177.8916473388672	1046.70849609375	-583.4615478515626	-131.6234436035157	1071.186401367188	-682.6987304687501	-69.83560180664064	1054.396240234375	-970.8605957031252	-74.01230621337892	1042.302124023438	-748.6808471679689	-246.9036254882813	1124.694946289063	-855.2866821289065	-253.9779663085938	1095.53173828125	-884.8736572265627	-255.7274017333985	1093.831176757813	-826.1490478515627	-146.5229187011719	782.8332519531252	-1050.739624023438	-116.1981430053711	703.7944335937501	-1054.1884765625	-67.99360656738283	705.4478149414064	-1046.718017578125	-144.0186614990235	651.7794799804689	-1043.822875976563	-150.7161254882813	529.3485107421876	-1043.998413085938	-118.6124801635742	498.4700927734376	-931.7116699218752	-115.3611602783203	375.2850341796876	-1028.485229492188	-189.886215209961	345.9733886718751	-1067.348388671875	-150.414794921875	334.4653015136719	-1052.605590820313	-160.759506225586	254.7238006591797	-1015.665405273438	-255.0032196044922	101.2524185180664	-1045.966064453125	-228.0228118896485	95.18832397460939	-962.351989746094	-320.4561157226563	42.0378646850586	-1000.976379394531	-85.67317962646486	54.35076141357423	-1021.708374023438	-99.12916564941409	53.98751449584962	-1064.341918945313	-150.4234313964844	31.22018051147462	-1108.904296875	-133.3645629882813	780.390808105469	-668.4036865234376	-92.7748260498047	727.6627807617189	-660.6283569335939	-60.96945571899415	730.6955566406251	-666.3363647460939	-118.8903427124024	645.6701049804689	-665.6261596679689	-151.7418823242188	508.6082153320314	-681.3488769531251	-108.0849304199219	486.9856262207032	-789.2253417968752	-144.4123840332032	295.0818786621094	-678.4069213867189	-239.6723022460938	243.4900970458985	-675.3466186523439	-195.5735778808594	228.3707275390626	-668.8948364257814	-182.9786834716797	175.7792358398438	-696.9680175781251	-266.3066406250001	94.65163421630861	-675.5117187500001	-223.2443084716797	99.16273498535159	-756.0017700195314	-325.3619995117188	42.70896148681641	-731.1748046875001	-95.4575881958008	49.98011016845705	-685.3599243164064	-109.4921112060547	56.230525970459	-641.5519409179689	-171.5969543457032	31.08954620361329	-600.0576782226564	
1224	6.115	-54.85648727416994	1774.870239257813	-764.6822509765626	-167.6484985351563	1708.6328125	-915.3994750976565	-176.4479675292969	1718.533569335938	-775.309265136719	-201.3905944824219	1566.601684570313	-842.8138427734377	-225.5509643554688	1252.244018554688	-854.944763183594	-57.97652053833009	1493.821899414063	-842.1728515625002	-113.2228698730469	1546.682373046875	-1030.905639648438	-202.6062011718751	1411.168579101563	-1194.391845703125	-166.0857543945313	1376.540283203125	-1197.774291992188	-205.7529754638672	1356.568115234375	-1238.731201171875	-201.8649597167969	1291.3828125	-1269.389038085938	-278.3051757812501	1274.7041015625	-1225.365478515625	-189.7459259033203	1047.929809570313	-1105.770263671875	-139.6954040527344	1031.27587890625	-1161.3017578125	-137.7430267333985	1051.701171875	-1056.457275390625	-93.79044342041017	1537.68798828125	-649.2764282226564	-212.6739349365235	1416.493896484375	-499.3035888671876	-181.8901824951172	1378.695068359375	-487.0638122558595	-230.6280975341797	1364.892700195313	-455.413543701172	-227.7082061767579	1299.112060546875	-427.3270568847657	-304.0284729003907	1289.920288085938	-473.5121154785157	-189.9052124023438	1095.049560546875	-641.6569213867189	-178.2357482910157	1046.772583007813	-583.7416381835939	-131.8642883300782	1071.2509765625	-682.9814453125001	-70.00379943847658	1054.440673828125	-971.1112060546877	-74.2420120239258	1042.451904296875	-748.9211425781251	-247.1527252197266	1125.162963867188	-855.6358032226565	-254.2348937988282	1095.611938476563	-885.2076416015627	-255.9727783203126	1094.041015625	-826.401550292969	-146.780990600586	782.9819335937502	-1050.947875976563	-116.4470672607422	703.9309692382814	-1054.2880859375	-68.20752716064455	705.4959716796876	-1046.72802734375	-144.3088073730469	651.8480834960939	-1043.950073242188	-151.1920928955078	529.4948120117189	-1044.075561523438	-119.090690612793	498.6065673828126	-931.7684326171877	-115.7019653320313	375.4239807128907	-1028.503295898438	-190.2511749267578	346.0332946777344	-1067.38427734375	-150.6812286376953	334.5574035644532	-1052.674438476563	-161.003173828125	254.8733367919922	-1015.769226074219	-255.0061035156251	101.2933654785157	-1045.982666015625	-228.0404510498047	95.20641326904298	-962.3272705078127	-320.4655456542969	42.02919387817384	-1000.966735839844	-85.69300842285158	54.35390472412111	-1021.716369628906	-99.15187835693362	54.03245544433595	-1064.3671875	-150.3850555419922	31.24835777282716	-1108.896728515625	-133.5824584960938	780.5440673828127	-668.6472167968751	-93.19491577148439	727.4901733398439	-661.1166381835939	-61.24026107788087	730.8689575195314	-666.7312011718751	-119.1647567749024	645.8060302734376	-665.8157958984376	-152.1168365478516	508.7668762207032	-681.5656127929689	-108.6384353637696	487.1768798828126	-789.5045166015627	-144.6516723632813	295.1715087890626	-678.4995727539064	-239.9013977050782	243.5698699951172	-675.4359130859376	-195.7572937011719	228.4236450195313	-668.9689331054689	-183.0743713378907	175.8983154296875	-696.9754028320314	-266.3026428222657	94.62776184082033	-675.4859008789064	-223.2434387207032	99.14347076416018	-756.0025024414064	-325.3705749511719	42.71597290039063	-731.1831054687501	-95.47824859619142	50.04285049438478	-685.4384765625001	-109.5527801513672	56.25954437255861	-641.4703979492189	-171.5879669189453	31.06049156188966	-600.0501708984376	
1225	6.12	-55.28520584106447	1774.787475585938	-764.5700683593751	-167.9446411132813	1708.877807617188	-915.4915771484377	-176.9705505371094	1718.686767578125	-775.428894042969	-201.7601470947266	1566.686767578125	-843.0662841796877	-225.830795288086	1252.3330078125	-855.210632324219	-58.34917449951173	1493.996215820313	-842.3579101562502	-113.4994125366211	1546.89697265625	-1031.1337890625	-202.8695373535157	1411.455444335938	-1194.66357421875	-166.1183013916016	1376.931762695313	-1198.166748046875	-205.9458618164063	1356.8447265625	-1239.008178710938	-202.1187896728516	1291.541015625	-1269.576171875	-278.5637512207032	1274.975341796875	-1225.621948242188	-189.9486694335938	1048.22265625	-1106.043334960938	-139.7213745117188	1031.688354492188	-1161.615844726563	-137.9046325683594	1051.8583984375	-1056.627197265625	-94.27928924560548	1537.737426757813	-649.4605102539064	-213.2295074462891	1416.543090820313	-499.5772094726564	-182.2571868896485	1378.837768554688	-487.0462341308595	-231.1916809082032	1364.822021484375	-455.6971435546876	-228.4691925048829	1299.05078125	-427.498016357422	-304.5336303710938	1289.847534179688	-473.8235778808595	-190.1725769042969	1095.052734375	-641.8999633789064	-178.5694274902344	1046.786499023438	-584.0121459960939	-132.178466796875	1071.33251953125	-683.2227783203126	-70.2117156982422	1054.615966796875	-971.3030395507815	-74.49834442138673	1042.589599609375	-749.1611328125001	-247.3654785156251	1125.313842773438	-856.0012207031252	-254.470687866211	1095.75048828125	-885.4768066406252	-256.1220703125001	1094.219116210938	-826.601257324219	-147.0144653320313	783.1314697265627	-1051.097534179688	-116.7407531738282	704.0189819335939	-1054.383911132813	-68.48245239257814	705.5773315429689	-1046.765502929688	-144.609848022461	651.9372558593751	-1044.011596679688	-151.5960388183594	529.5893554687501	-1044.166625976563	-119.4810333251953	498.734344482422	-931.9971923828127	-115.9961547851563	375.4906005859376	-1028.472778320313	-190.4962158203125	346.0412902832032	-1067.421020507813	-151.4493713378907	334.5729370117188	-1052.398193359375	-161.1791229248047	254.9909362792969	-1015.858215332031	-255.0454406738282	101.2622680664063	-1046.001831054688	-228.0569915771485	95.23816680908205	-962.3485107421877	-320.4454956054688	42.0512924194336	-1000.980163574219	-85.69559478759767	54.37588500976564	-1021.737609863281	-99.1525573730469	54.03287506103517	-1064.337158203125	-150.3959197998047	31.219388961792	-1108.892211914063	-133.7551727294922	780.7037353515627	-668.9429321289064	-93.36204528808595	727.6295776367189	-661.3640747070314	-61.51694488525392	731.0355834960939	-667.2326660156251	-119.4498443603516	645.9115600585939	-666.0064697265626	-152.4101104736328	508.9300537109376	-681.7532958984376	-109.179672241211	487.365936279297	-789.7274169921877	-144.9389343261719	295.3474731445313	-678.5591430664064	-240.0743560791016	243.6089935302735	-675.5381469726564	-195.8482360839844	228.5094909667969	-669.1198120117189	-183.1665954589844	175.9664764404297	-696.9896240234376	-266.3424682617188	94.68344879150392	-675.4696044921876	-223.2505035400391	99.12978363037112	-755.9863891601564	-325.3682556152344	42.70386505126954	-731.1758422851564	-95.4469451904297	49.95237731933595	-685.3353881835939	-109.5354080200196	56.29243087768556	-641.4770507812501	-171.5778045654297	31.04836463928223	-600.0544433593751	
1226	6.125	-55.69012451171876	1774.846557617188	-764.4778442382814	-168.0818176269532	1709.044799804688	-915.595397949219	-177.4523468017578	1718.897216796875	-775.5393066406252	-202.0752105712891	1566.877563476563	-843.228454589844	-226.1061248779297	1252.437622070313	-855.5610961914065	-58.77101135253908	1494.269897460938	-842.505554199219	-113.7377548217774	1547.1015625	-1031.350463867188	-203.1858215332032	1411.1708984375	-1194.986083984375	-166.3716125488282	1377.036010742188	-1198.449951171875	-206.2209014892579	1357.185913085938	-1239.3037109375	-202.3887939453126	1291.785522460938	-1269.799194335938	-278.8779907226563	1275.194213867188	-1225.859008789063	-189.965576171875	1048.453369140625	-1106.240844726563	-139.6629180908203	1031.911499023438	-1161.925659179688	-138.0065002441407	1051.970336914063	-1056.897705078125	-94.76617431640626	1537.755737304688	-649.5985107421876	-213.3866882324219	1416.769287109375	-499.6470336914064	-182.8623504638672	1378.666137695313	-487.3159790039064	-231.8058013916016	1364.769287109375	-455.9936523437501	-229.1176452636719	1299.079345703125	-427.6896972656251	-305.0889892578126	1289.767211914063	-474.1752929687501	-190.2848663330078	1095.08837890625	-642.1112670898439	-178.8204650878907	1046.717407226563	-584.3395996093751	-132.4757080078125	1071.420043945313	-683.4736328125001	-70.58055877685548	1054.73046875	-971.4222412109377	-74.68593597412111	1042.602172851563	-749.4042358398439	-247.6310272216797	1125.427734375	-856.2966308593752	-254.6664428710938	1095.861328125	-885.8079223632815	-256.2829284667969	1094.334228515625	-826.7535400390627	-147.2838592529297	783.279724121094	-1051.295776367188	-116.9383316040039	704.1807250976564	-1054.4736328125	-68.64971160888673	705.5859375000001	-1046.816040039063	-144.8685150146485	652.0072631835939	-1044.171508789063	-151.917221069336	529.6789550781251	-1044.297241210938	-120.2673721313477	498.6777954101564	-932.1988525390627	-116.3006668090821	375.6417846679688	-1028.629150390625	-190.7410736083985	346.1023864746094	-1067.442016601563	-150.749755859375	335.2850341796876	-1052.693115234375	-161.3503875732422	255.0490875244141	-1015.843383789063	-255.0985870361329	101.248405456543	-1046.003784179688	-228.1459045410157	95.27021789550783	-962.409118652344	-320.5029296875001	42.05583190917969	-1000.957214355469	-85.71041107177736	54.33374786376955	-1021.724365234375	-99.14035797119143	53.97710418701173	-1064.33935546875	-150.4223785400391	31.22458076477051	-1108.875366210938	-133.9351654052735	780.8986816406252	-669.1345825195314	-93.48840332031251	727.7717895507814	-661.5023193359376	-61.79351806640626	731.1899414062501	-667.5936889648439	-119.7630996704102	646.0780639648439	-666.2150268554689	-152.6701202392578	509.026092529297	-681.9357910156251	-109.3856048583985	487.4492797851564	-790.011169433594	-145.1161499023438	295.4667358398438	-678.6124267578126	-240.2405548095704	243.693832397461	-675.5914306640626	-196.0290985107422	228.5271759033204	-669.2003784179689	-183.1983337402344	176.0229797363282	-697.0322875976564	-266.3867797851563	94.67053985595705	-675.4771728515626	-223.2768249511719	99.15406036376956	-755.9927368164064	-325.3935241699219	42.69947814941407	-731.1550292968751	-95.51877593994142	50.07846069335939	-685.4156494140626	-109.5785522460938	56.24360656738283	-641.5226440429689	-171.5903778076172	31.06864166259766	-600.0319213867189	
